<svg id="Layer_1" data-name="Layer 1" xmlns="http://www.w3.org/2000/svg" xmlns:xlink="http://www.w3.org/1999/xlink" viewBox="0 0 405.74 121.99"><defs><style>.cls-1{fill:#fff;}.cls-2{fill:url(#linear-gradient);}.cls-3{fill:url(#linear-gradient-2);}.cls-4{fill:url(#linear-gradient-3);}</style><linearGradient id="linear-gradient" x1="197.77" y1="66.92" x2="223.29" y2="30.74" gradientUnits="userSpaceOnUse"><stop offset="0" stop-color="#ffd500"/><stop offset="0.22" stop-color="#ee7919"/><stop offset="0.52" stop-color="#a04391"/><stop offset="1" stop-color="#524b99"/></linearGradient><linearGradient id="linear-gradient-2" x1="201.56" y1="69.59" x2="227.07" y2="33.41" xlink:href="#linear-gradient"/><linearGradient id="linear-gradient-3" x1="218.02" y1="81.2" x2="243.53" y2="45.02" xlink:href="#linear-gradient"/></defs><path class="cls-1" d="M294,40.75V65.56A14.69,14.69,0,0,1,292.47,73,8.35,8.35,0,0,1,288,76.72a21.71,21.71,0,0,1-7.35,1.07H224.25a3.76,3.76,0,0,1-3.06-1.54h0a7.61,7.61,0,0,1-1.43-5.47c0-.28.1-.58.18-.88l1.5-6,3.48,4.61a5.56,5.56,0,0,0,4.45,2.22h52.81a17.2,17.2,0,0,0,2.77-.19,2.43,2.43,0,0,0,2-2.11,24,24,0,0,0,.13-2.58V42.62Z"/><path class="cls-1" d="M341,57.17a12.76,12.76,0,0,0-3.36-5.29,7.15,7.15,0,0,0-9.62-.18,13.46,13.46,0,0,0-4.64,9.76,6.42,6.42,0,0,0,2,4.92c1.31,1.21,3.28,1.81,5.85,1.81a22.61,22.61,0,0,0,5.33-.52,12,12,0,0,1-.2,1.31c-.1.42-.14.66-.18.8a22.86,22.86,0,0,1-4.53.75c-2.11.18-5.65.22-10.66.22h-4.61v.06s0-.06-.08-.06a10.47,10.47,0,0,1-3.09-.32,3.59,3.59,0,0,1-1.87-1.35,47,47,0,0,1-3-6.28l-2.43-6.89-.15-.57-5.49,6.32c1.17,2.35,4,8.4,5.58,12a11.66,11.66,0,0,1-3,3.5,22,22,0,0,1-5.29,3.08,37,37,0,0,1-7.42,2.11l-.85,0,4.21,5.68A32.25,32.25,0,0,0,301,85.77a22,22,0,0,0,5.83-3.8,13.58,13.58,0,0,0,3.46-5,11.55,11.55,0,0,0,4.53.83h4.62c4.09,0,7.37-.06,9.76-.2a32,32,0,0,0,5.79-.73,9.83,9.83,0,0,0,3.64-1.69,5.9,5.9,0,0,0,1.79-2.39,16.61,16.61,0,0,0,1.29-3.82,19.4,19.4,0,0,0,.48-4.43A21.65,21.65,0,0,0,341,57.17Zm-8.41,5a6.69,6.69,0,0,1-2.8-.42,1.43,1.43,0,0,1-.84-1.35,3.58,3.58,0,0,1,.48-1.77,4.81,4.81,0,0,1,1.25-1.51,3,3,0,0,1,1.69-.56,3.41,3.41,0,0,1,2.71,1.55,9,9,0,0,1,1.53,3.78A31.63,31.63,0,0,1,332.62,62.16Z"/><polygon class="cls-1" points="335.62 43.16 330.14 39.34 326.68 44.4 332.21 48.33 335.62 43.16"/><path class="cls-1" d="M365.66,63.67a11.86,11.86,0,0,0-3.31-5.17,7.22,7.22,0,0,0-5-2,7.14,7.14,0,0,0-4.65,1.77,13.32,13.32,0,0,0-4.66,9.79A6.34,6.34,0,0,0,350,73a8.44,8.44,0,0,0,5.83,1.79,26.51,26.51,0,0,0,4.55-.34,10.3,10.3,0,0,1-5.4,4.42,27.5,27.5,0,0,1-9.73,1.59l-.82-.08,3.78,6a22.12,22.12,0,0,0,10.23-2.26,15.39,15.39,0,0,0,6.26-5.79,14.81,14.81,0,0,0,2.07-7.54A21.41,21.41,0,0,0,365.66,63.67Zm-8.32,5.11a7.49,7.49,0,0,1-2.84-.4,1.35,1.35,0,0,1-.86-1.35,3.79,3.79,0,0,1,.48-1.79,4.47,4.47,0,0,1,1.25-1.47,2.82,2.82,0,0,1,1.73-.6,3.25,3.25,0,0,1,2.67,1.58,8.17,8.17,0,0,1,1.49,3.75A31.26,31.26,0,0,1,357.34,68.78Z"/><polygon class="cls-1" points="371.46 42.4 371.46 77.83 371.46 78.27 378.64 76.37 378.64 40.45 371.46 42.4"/><path class="cls-1" d="M348,49.89v4.16l18.92-4v-4.2Z"/><path class="cls-1" d="M247.84,51.7v4.15l22.81-5.71v-4.2Z"/><path class="cls-1" d="M99.28,47.79v3.5h7l-2,6.36H99.28V77.93h-8V57.65H79.88V77.93h-8V57.65H68.66L68,51.29h3.88V48a12.65,12.65,0,0,1,1.25-5.77,9.35,9.35,0,0,1,3.65-4,10.76,10.76,0,0,1,5.81-1.44,20,20,0,0,1,3.56.29A18.26,18.26,0,0,1,89.3,38l-2,6.3a7.19,7.19,0,0,0-1.9-.64,7.27,7.27,0,0,0-1.91-.21,3.4,3.4,0,0,0-2.66,1.15,4.79,4.79,0,0,0-.94,3.21v3.5H91.32V48a12.65,12.65,0,0,1,1.25-5.77,9.24,9.24,0,0,1,3.6-4A10.94,10.94,0,0,1,102,36.78a19.79,19.79,0,0,1,3.56.29,16.21,16.21,0,0,1,3.11.91l-2,6.3a6.72,6.72,0,0,0-1.95-.64,6.61,6.61,0,0,0-1.86-.21,3.35,3.35,0,0,0-2.64,1.15A4.69,4.69,0,0,0,99.28,47.79Z"/><path class="cls-1" d="M133.25,60.34a14.73,14.73,0,0,0-1.36-6.44,10.78,10.78,0,0,0-4.11-4.47,13,13,0,0,0-6.66-1.6A13.9,13.9,0,0,0,114,49.58a12.09,12.09,0,0,0-4.55,5.28,19.83,19.83,0,0,0-1.55,8.24,17.16,17.16,0,0,0,1.85,8.5,11.5,11.5,0,0,0,5,4.85,16.8,16.8,0,0,0,7,1.47,18.47,18.47,0,0,0,6-.94,16.9,16.9,0,0,0,4.92-2.62L130,69.2a17.53,17.53,0,0,1-3.8,1.81,11.69,11.69,0,0,1-3.66.59,6.43,6.43,0,0,1-4.39-1.69A8,8,0,0,1,116,64.75h17C133.13,62.62,133.25,61.18,133.25,60.34Zm-8-1.12h-9A8,8,0,0,1,117.87,55a4.18,4.18,0,0,1,3.21-1.38,4,4,0,0,1,3,1.28A6.2,6.2,0,0,1,125.24,59Z"/><path class="cls-1" d="M145.21,51.84v-3.7l-8,.75v29h8V59.1a9.08,9.08,0,0,1,2.9-2.6,6.35,6.35,0,0,1,3-.75,6.93,6.93,0,0,1,1.81.2c.5.1,1.05.3,1.7.5V48a8.76,8.76,0,0,0-2-.2A9,9,0,0,0,145.21,51.84Z"/><polygon class="cls-1" points="158.62 77.93 166.63 77.93 166.63 36.47 158.62 37.22 158.62 77.93"/><path class="cls-1" d="M194.77,55.75c-.33-3.14-1.46-5.37-3.36-6.76s-4.57-2-8.07-2a18.78,18.78,0,0,0-6.56,1,20,20,0,0,0-2.31.94v7c3-2,5.69-3,8.19-3a5.32,5.32,0,0,1,2.36.46,3.11,3.11,0,0,1,1.34,1.39,4.29,4.29,0,0,1,.49,1.82l.07.65c0-.1-4,.26-4.42.31a14,14,0,0,0-7.76,3.23,11.21,11.21,0,0,0-3.09,10A7.83,7.83,0,0,0,173,74.32,8.57,8.57,0,0,0,176.25,77a10.07,10.07,0,0,0,4.51.94,15,15,0,0,0,4.49-.64A14.6,14.6,0,0,0,189.36,75l1,2.89h6.81ZM183.1,72.12a3.43,3.43,0,0,1-2.34-.69c-1.76-1.62-1.44-4.53-.54-6.23a5.86,5.86,0,0,1,4.08-2.94c.25,0,3.12-.3,3.12-.35s.91,8.61.91,8.61A10.72,10.72,0,0,1,183.1,72.12Z"/><path class="cls-1" d="M45.83,36.77C35.5,36.77,27.11,46,27.11,57.36S35.5,77.93,45.83,77.93s18.76-9.22,18.76-20.57S56.19,36.77,45.83,36.77Zm0,32.47c-5.9,0-10.7-5.32-10.7-11.88S40,45.47,45.86,45.47s10.67,5.31,10.67,11.89S51.75,69.24,45.86,69.24Z"/><path class="cls-2" d="M218.27,42.58l-.06,3.5-8.65,3.67-.46-3.69a7.47,7.47,0,0,1,4.49-7.77l2-.83.41,3.31-1.7.72a3.54,3.54,0,0,0-2.13,3.7h0Z"/><path class="cls-3" d="M239.77,33.93l-19.72,28.2L210.26,75.9a4.76,4.76,0,0,1-8.61-2.18l-2.41-19.61,7.33-3.1,1.77,14.36,22-31.44Z"/><path class="cls-4" d="M231.83,77.79h-9.6s-1-1.44-2.43-3.28a7.6,7.6,0,0,1-1.27-6.39l1.52-6Z"/></svg>