<svg width="42" height="23" viewBox="0 0 42 23" fill="none" xmlns="http://www.w3.org/2000/svg">
<path d="M6.87939 22.5646C6.87939 18.7436 6.87939 15.013 6.87939 11.1919C10.75 11.1919 14.5899 11.1919 18.5013 11.1919C18.5013 14.9577 18.5013 18.7134 18.5013 22.5646C14.6817 22.5646 10.8367 22.5646 6.87939 22.5646ZM10.8061 18.7184C12.1829 18.7184 13.417 18.7184 14.5848 18.7184C14.5848 17.4012 14.5848 16.1895 14.5848 15.0381C13.2487 15.0381 12.0198 15.0381 10.8061 15.0381C10.8061 16.3202 10.8061 17.5067 10.8061 18.7184Z" fill="#3F4C60"/>
<path d="M22.6012 11.2471C23.8914 11.2471 25.0949 11.2471 26.3647 11.2471C26.3647 15.0581 26.3647 18.8188 26.3647 22.6651C25.1357 22.6651 23.9016 22.6651 22.6012 22.6651C22.6012 18.8892 22.6012 15.1285 22.6012 11.2471Z" fill="#49B862"/>
<path d="M3.76348 0H0V22.665H3.76348V0Z" fill="#3F4C60"/>
<path d="M30.4597 11.2268C31.7142 11.2268 32.8871 11.2268 34.162 11.2268C34.162 15.0278 34.162 18.8137 34.162 22.68C32.9687 22.68 31.7652 22.68 30.4597 22.68C30.4597 18.9192 30.4597 15.1334 30.4597 11.2268Z" fill="#66C3A2"/>
<path d="M42 22.7255C40.7251 22.7255 39.5522 22.7255 38.2875 22.7255C38.2875 18.9095 38.2875 15.1236 38.2875 11.2673C39.5012 11.2673 40.7047 11.2673 42 11.2673C42 15.0432 42 18.8291 42 22.7255Z" fill="#30B2E7"/>
</svg>
